<svg id="Layer_1" data-name="Layer 1" xmlns="http://www.w3.org/2000/svg" width="510" height="510" viewBox="0 0 510 510">
  <defs>
    <style>
      .cls-1 {
        fill: gray;
      }

      .cls-2 {
        fill: #fff;
      }
    </style>
  </defs>
  <title>logo</title>
  <rect class="cls-1" width="510" height="510"/>
  <g>
    <path class="cls-2" d="M48.1,202.7H61.9v94.8h54.3v12.8H48.1V202.7Z" transform="translate(-1 -1)"/>
    <path class="cls-2" d="M219.9,217.5A59.2,59.2,0,0,1,230.8,254a64.2,64.2,0,0,1-11.8,40.5,48.4,48.4,0,0,1-40.5,18.8,49.4,49.4,0,0,1-39.5-16.8A62.2,62.2,0,0,1,125.1,257,63.2,63.2,0,0,1,136,219.5a47.4,47.4,0,0,1,41.5-19.7A49.4,49.4,0,0,1,219.9,217.5Zm-12.8,68.1A59.2,59.2,0,0,0,216,254a45.4,45.4,0,0,0-9.9-30.6,33.6,33.6,0,0,0-27.6-10.9,35.5,35.5,0,0,0-27.6,11.8A48.4,48.4,0,0,0,139.9,258a49.4,49.4,0,0,0,8.9,30.6,33.6,33.6,0,0,0,29.6,11.8,30.6,30.6,0,0,0,28.6-13.8v-1Z" transform="translate(-1 -1)"/>
    <path class="cls-2" d="M319.7,205.7a38.5,38.5,0,0,1,19.7,29.6H324.6a26.7,26.7,0,0,0-10.9-16.8,36.5,36.5,0,0,0-20.7-5.9,31.6,31.6,0,0,0-24.7,10.9,48.4,48.4,0,0,0-9.9,33.6,54.3,54.3,0,0,0,7.9,31.6A30.6,30.6,0,0,0,293,300.5a33.6,33.6,0,0,0,23.7-8.9,35.5,35.5,0,0,0,9.9-27.6H293V252.1h47.4v57.3h-9.9l-3.9-13.8a55.3,55.3,0,0,1-12.8,10.9,47.4,47.4,0,0,1-23.7,4.9,46.4,46.4,0,0,1-32.6-12.8A59.2,59.2,0,0,1,243.6,258a61.2,61.2,0,0,1,14.8-43.4A45.4,45.4,0,0,1,294,199.7,54.3,54.3,0,0,1,319.7,205.7Z" transform="translate(-1 -1)"/>
    <path class="cls-2" d="M453,217.5A59.2,59.2,0,0,1,463.8,254,64.2,64.2,0,0,1,452,294.5a48.4,48.4,0,0,1-40.5,18.8A49.4,49.4,0,0,1,372,296.5,62.2,62.2,0,0,1,359.2,256,63.2,63.2,0,0,1,370,218.5a47.4,47.4,0,0,1,41.5-19.7A49.4,49.4,0,0,1,453,217.5Zm-12.8,68.1A59.2,59.2,0,0,0,449,254a45.4,45.4,0,0,0-9.9-30.6,33.6,33.6,0,0,0-27.6-10.9,35.5,35.5,0,0,0-27.6,11.8A48.4,48.4,0,0,0,373,258a49.4,49.4,0,0,0,8.9,30.6,33.6,33.6,0,0,0,29.6,11.8,30.6,30.6,0,0,0,28.6-13.8v-1Z" transform="translate(-1 -1)"/>
  </g>
</svg>
