<svg id="Layer_1" data-name="Layer 1" xmlns="http://www.w3.org/2000/svg" viewBox="0 0 510 510"><defs><style>.cls-1{fill:gray}.cls-2{fill:#fff}</style></defs><title>logo</title><path class="cls-1" d="M0 0h510v510H0z"/><path class="cls-2" d="M48.1 202.7h13.8v94.8h54.3v12.8H48.1V202.7zM219.9 217.5a59.2 59.2 0 0 1 10.9 36.5 64.2 64.2 0 0 1-11.8 40.5 48.4 48.4 0 0 1-40.5 18.8 49.4 49.4 0 0 1-39.5-16.8 62.2 62.2 0 0 1-13.9-39.5 63.2 63.2 0 0 1 10.9-37.5 47.4 47.4 0 0 1 41.5-19.7 49.4 49.4 0 0 1 42.4 17.7zm-12.8 68.1A59.2 59.2 0 0 0 216 254a45.4 45.4 0 0 0-9.9-30.6 33.6 33.6 0 0 0-27.6-10.9 35.5 35.5 0 0 0-27.6 11.8 48.4 48.4 0 0 0-11 33.7 49.4 49.4 0 0 0 8.9 30.6 33.6 33.6 0 0 0 29.6 11.8 30.6 30.6 0 0 0 28.6-13.8v-1zM319.7 205.7a38.5 38.5 0 0 1 19.7 29.6h-14.8a26.7 26.7 0 0 0-10.9-16.8 36.5 36.5 0 0 0-20.7-5.9 31.6 31.6 0 0 0-24.7 10.9 48.4 48.4 0 0 0-9.9 33.6 54.3 54.3 0 0 0 7.9 31.6 30.6 30.6 0 0 0 26.7 11.8 33.6 33.6 0 0 0 23.7-8.9 35.5 35.5 0 0 0 9.9-27.6H293v-11.9h47.4v57.3h-9.9l-3.9-13.8a55.3 55.3 0 0 1-12.8 10.9 47.4 47.4 0 0 1-23.7 4.9 46.4 46.4 0 0 1-32.6-12.8 59.2 59.2 0 0 1-13.9-40.6 61.2 61.2 0 0 1 14.8-43.4 45.4 45.4 0 0 1 35.6-14.9 54.3 54.3 0 0 1 25.7 6zM453 217.5a59.2 59.2 0 0 1 10.8 36.5 64.2 64.2 0 0 1-11.8 40.5 48.4 48.4 0 0 1-40.5 18.8 49.4 49.4 0 0 1-39.5-16.8 62.2 62.2 0 0 1-12.8-40.5 63.2 63.2 0 0 1 10.8-37.5 47.4 47.4 0 0 1 41.5-19.7 49.4 49.4 0 0 1 41.5 18.7zm-12.8 68.1A59.2 59.2 0 0 0 449 254a45.4 45.4 0 0 0-9.9-30.6 33.6 33.6 0 0 0-27.6-10.9 35.5 35.5 0 0 0-27.6 11.8A48.4 48.4 0 0 0 373 258a49.4 49.4 0 0 0 8.9 30.6 33.6 33.6 0 0 0 29.6 11.8 30.6 30.6 0 0 0 28.6-13.8v-1z" transform="translate(-1 -1)"/></svg>