<svg xmlns="http://www.w3.org/2000/svg" viewBox="0 0 100 100"><defs><style>.a{fill:#1d1d1b;}</style></defs><title>Artboard 1</title><path class="a" d="M67.29,17.76q-17.11-.38-34.23,0c-9.87.22-15.36,5.68-15.58,15.5q-.38,17.21,0,34.43c.21,9.55,5.83,15,15.34,15.35,5.77.2,11.54,0,17.32,0v0C56,83,62,83.19,67.86,83c4.81-.16,9.08-1.81,12-5.9a15.79,15.79,0,0,0,2.87-9.28c.08-11.48.22-23,0-34.43C82.56,23.55,77.06,18,67.29,17.76ZM49.94,71A20.66,20.66,0,1,1,70.77,50.5,20.54,20.54,0,0,1,49.94,71ZM71.63,33.76a5,5,0,0,1-4.91-4.85,4.85,4.85,0,0,1,4.86-4.82,4.67,4.67,0,0,1,4.84,4.77A4.85,4.85,0,0,1,71.63,33.76Z"/><path class="a" d="M50.1,37A13.36,13.36,0,1,0,63.47,50.42,13.23,13.23,0,0,0,50.1,37Z"/><path class="a" d="M98.37,5.79A11.13,11.13,0,0,0,90.3.16,5.38,5.38,0,0,1,89.78,0H10.22A33.21,33.21,0,0,0,6.63,1.21a11.09,11.09,0,0,0-6.5,9,1.94,1.94,0,0,1-.13.36V89.46A28.94,28.94,0,0,0,1.55,94.1a11.21,11.21,0,0,0,7.92,5.74,3.13,3.13,0,0,1,.43.17H90.1a30.56,30.56,0,0,0,3.84-1.42,11.35,11.35,0,0,0,5.89-8.12,4.93,4.93,0,0,1,.17-.51V10.06A31.62,31.62,0,0,0,98.37,5.79Zm-8.44,63.5A21.1,21.1,0,0,1,69,90.2c-12.6.34-25.23.31-37.84,0C20.77,90,12.86,82.95,10.76,72.85c-.43-2.09-.63-4.23-.93-6.34V34.28c.13-.92.32-1.84.37-2.76.61-10.4,7.22-18.26,17.29-20.45,2.14-.46,4.34-.65,6.51-1H66.24c.85.13,1.7.32,2.56.37,11.94.65,20.85,9.27,21.14,21.18Q90.41,50.46,89.92,69.29Z"/></svg>