<svg xmlns="http://www.w3.org/2000/svg" viewBox="0 0 100 100"><defs><style>.a{fill:#1d1d1b;}</style></defs><title>facebook</title><path class="a" d="M100,15V85c-.07.25-.15.5-.21.75Q97.45,96.34,87.06,99.48c-.68.2-1.38.35-2.07.52H65.65c0-.26-.07-.52-.07-.79q0-18,0-36v-1h1c4.9,0,9.8,0,14.69,0,.71,0,1-.15,1-.92,0-5,0-9.9,0-14.85,0-.28,0-.57,0-1H65.65c0-2.58-.12-5.06,0-7.52s1.63-3.56,4-3.56h11.5c.34,0,.68,0,1-.06V17.8c-.29,0-.53,0-.77,0H69a16.59,16.59,0,0,0-9.79,3.12,21.05,21.05,0,0,0-8.88,14.56A78.18,78.18,0,0,0,50,44.6c0,.3,0,.61,0,1H37.82c0,.26-.06.44-.06.63,0,5.08,0,10.17,0,15.25,0,.69.29.77.86.77,3.46,0,6.92,0,10.38,0h1V100H15c-.23-.06-.45-.14-.68-.19Q3.67,97.5.52,87.06C.31,86.38.17,85.68,0,85V15c.09-.35.2-.71.28-1.07A17.29,17.29,0,0,1,12.71.58C13.46.34,14.25.19,15,0H85c.2.06.4.14.6.18Q96.36,2.46,99.5,13c.2.66.33,1.33.5,2"/></svg>