<svg xmlns="http://www.w3.org/2000/svg" viewBox="0 0 100 100"><defs><style>.a{fill:#1d1d1b;}</style></defs><title>twitter</title><path class="a" d="M99.48,12.71C97.54,5.82,93,1.69,86,.25c-.31-.06-.6-.16-.9-.25H14.86c-.72.17-1.44.32-2.15.52Q2.38,3.43.25,14c-.06.31-.17.6-.25.9V85.14a35,35,0,0,0,.92,3.52A16.46,16.46,0,0,0,14,99.77c.28.05.55.15.82.23H85.14c.74-.18,1.49-.33,2.22-.54,6.82-1.94,10.92-6.41,12.37-13.34.07-.33.18-.65.26-1V14.86C99.83,14.14,99.68,13.42,99.48,12.71ZM88.35,27.06q-2.71,2.8-5.54,5.49a2.35,2.35,0,0,0-1,1.92A48.86,48.86,0,0,1,79.25,51a49.49,49.49,0,0,1-7.7,14.51A44.66,44.66,0,0,1,58.11,77.25a46,46,0,0,1-27.3,5.64,45.2,45.2,0,0,1-20-6.76,7.26,7.26,0,0,1-.61-.51,33.06,33.06,0,0,0,24-6.88C26.54,68.07,21.66,64.09,19,57.21a18.6,18.6,0,0,0,6.87-.42,17.05,17.05,0,0,1-9.2-6.07,16.6,16.6,0,0,1-3.51-10.51,16.69,16.69,0,0,0,7.29,2,17,17,0,0,1-5-22.2c8.87,10.55,20,16.47,33.7,17.41-.08-1.6-.24-3.06-.2-4.51A16.37,16.37,0,0,1,60.2,17.77c6.13-2,11.66-.7,16.42,3.66a1.66,1.66,0,0,0,1.74.51,32.46,32.46,0,0,0,8.09-3.1c.37-.2.75-.39,1.13-.59a16.11,16.11,0,0,1-6.61,9A39.53,39.53,0,0,0,89.79,25,15.85,15.85,0,0,1,88.35,27.06Z"/></svg>